<svg width="119" height="26" viewBox="0 0 119 26" fill="none" xmlns="http://www.w3.org/2000/svg">
<path d="M112.625 22.305C114.187 22.305 115.525 21.914 116.64 21.133C117.921 20.237 118.578 18.914 118.609 17.164C118.651 14.706 117.479 12.94 115.093 11.867C113.937 11.45 112.567 11.138 110.984 10.93C109.401 10.721 108.244 10.482 107.515 10.21C106.401 9.815 105.843 9.263 105.843 8.555C105.843 8.045 105.984 7.643 106.265 7.352C106.546 7.06 106.937 6.914 107.437 6.914H115.89L117.406 3.242H107.437C105.812 3.242 104.432 3.706 103.297 4.632C102.057 5.632 101.437 6.94 101.437 8.555C101.437 10.659 102.442 12.19 104.453 13.148C105.609 13.586 107.127 13.958 109.007 14.266C110.887 14.573 112.213 14.898 112.984 15.242C113.807 15.617 114.214 16.242 114.203 17.117C114.213 17.637 114.067 18.039 113.765 18.32C113.484 18.529 113.104 18.633 112.625 18.633L97.3588 18.628L95.8428 22.3L112.625 22.305Z" fill="#FD8301"/>
<path d="M78.5249 23.805L88.5979 1.758H93.6979L103.772 23.805H78.5249ZM92.6549 17.038L91.1629 13.581L89.7199 17.039L92.6549 17.038Z" fill="#FD8301"/>
<path d="M70.172 7.02302H77.109C77.442 7.02302 77.755 7.16902 78.047 7.46102C78.474 7.87802 78.687 8.67402 78.687 9.85102C78.687 11.018 78.474 11.81 78.047 12.227C77.755 12.518 77.442 12.664 77.109 12.664H71.734L70.172 16.445V7.02302ZM70.172 16.445H77.109C78.932 16.445 80.469 15.82 81.719 14.57C82.833 13.456 83.39 11.883 83.39 9.85202C83.39 7.82002 82.833 6.24202 81.718 5.11702C80.468 3.87702 78.932 3.25702 77.109 3.25702H65.47V22.305H70.173L70.172 16.445Z" fill="#FD8301"/>
<path d="M26.094 22.356C25.812 21.754 25.621 21.228 25.521 20.779C25.421 20.329 25.325 19.564 25.234 18.485L9.219 18.539C8.073 18.539 7.068 18.107 6.203 17.242C5.203 16.242 4.703 14.706 4.703 12.632C4.703 10.758 5.203 9.32002 6.203 8.32002C7.068 7.45602 8.073 7.02302 9.219 7.02302L23.514 7.01502C23.964 6.12202 24.394 5.45302 24.804 5.00702C25.07 4.71802 25.596 4.14502 26.381 3.28702L9.219 3.25702C6.583 3.25702 4.359 4.16902 2.547 5.99202C0.849 7.68002 0 9.89302 0 12.632C0 15.57 0.849 17.882 2.547 19.57C4.359 21.393 6.583 22.305 9.219 22.305L26.094 22.355V22.356Z" fill="white"/>
<path d="M62.7969 22.305V3.258H59.5149L50.2029 18.414L52.2499 21.711L58.4059 11.945V22.305H62.7969Z" fill="#FD8301"/>
<path d="M32.0401 1.55501C34.9131 1.43401 38.0761 1.53101 39.7761 3.24101C41.3161 4.77101 41.4121 7.73401 41.2491 10.728C41.2111 11.437 41.1721 12.136 41.1721 12.789C41.1721 16.419 40.1291 19.168 38.1891 21.097C36.0871 23.21 33.5101 24.273 30.4531 24.273H28.2341C27.6451 24.273 27.0081 24.32 26.3511 24.366L25.5781 24.419C23.0781 24.574 20.6611 24.368 19.1581 22.865C17.5631 21.27 17.3991 17.815 17.4851 14.512C17.5001 13.919 17.5151 13.338 17.5151 12.789C17.5151 9.37401 18.5471 6.71801 20.4991 4.77901C22.6001 2.66501 25.1771 1.60201 28.2341 1.60201H30.4531C30.9461 1.60201 31.4831 1.57801 32.0401 1.55501Z" fill="white"/>
<path d="M46.0939 22.305V11.945L49.4689 17.242L51.5149 13.961L44.9849 3.258H41.7029V22.305H46.0939Z" fill="white"/>
<path fill-rule="evenodd" clip-rule="evenodd" d="M36.7335 6.04107L32.172 15.6726L26.8998 10.4004L36.7335 6.04107Z" fill="#C74923"/>
<path fill-rule="evenodd" clip-rule="evenodd" d="M22.5399 20.2348L32.1721 15.6726L26.8999 10.4004L22.5399 20.2348Z" fill="#1353A2"/>
<path d="M28.826 13.7464C29.218 14.1385 29.8537 14.1385 30.2458 13.7464C30.6379 13.3543 30.6379 12.7186 30.2458 12.3265C29.8537 11.9345 29.218 11.9345 28.826 12.3265C28.4339 12.7186 28.4339 13.3543 28.826 13.7464Z" fill="white"/>
</svg>
