<svg width="53" height="61" viewBox="0 0 53 61" fill="none" xmlns="http://www.w3.org/2000/svg">
<g clip-path="url(#clip0_1_188)">
<path fill-rule="evenodd" clip-rule="evenodd" d="M52.57 0L52.5652 60.0795H48.7789L48.7154 60.0124L48.6835 59.9808C48.6741 59.9719 48.6611 59.9598 48.6512 59.951L42.2149 55.1213C41.9613 54.9319 41.5697 54.6004 41.3045 54.4652C41.0248 54.6167 40.6382 54.9423 40.3627 55.1486C39.359 55.9005 34.5371 59.4348 33.9268 59.982C33.8654 60.0371 33.8741 60.028 33.8288 60.0795H33.7593L33.6955 60.0126C33.6869 60.0041 33.6731 59.9901 33.6635 59.981L27.1957 55.1208C26.9456 54.9337 26.5453 54.5979 26.2846 54.4657C25.9644 54.6405 25.6846 54.9073 25.3454 55.1502L22.5156 57.2498C22.1717 57.5039 18.9919 59.8354 18.7622 60.0795H18.7111L11.2647 54.4657L4.22129 59.7249C4.12186 59.7993 4.08167 59.8239 3.98658 59.8991L3.78929 60.0795H0.00388698L0 0H52.57ZM3.75451 3.7469V4.04833L3.7735 56.2998L10.3233 51.3938C10.6018 51.1855 10.9825 50.8645 11.2647 50.7097L18.7746 56.2992C19.0682 56.1298 19.4228 55.8342 19.7108 55.6181L26.2846 50.7107L28.1672 52.0958C28.7939 52.5645 29.4197 53.0327 30.0444 53.5039L33.7945 56.299C34.7966 55.7094 40.5944 51.0957 41.3045 50.7113L48.7889 56.299C48.8467 55.9053 48.8147 55.3291 48.8148 54.9164L48.8144 3.74759L3.75451 3.7469Z" fill="#1253A2"/>
<path fill-rule="evenodd" clip-rule="evenodd" d="M11.2647 11.9103L11.268 15.0158L41.3003 15.016L41.3045 11.2606L11.2649 11.2611L11.2647 11.9103Z" fill="black"/>
<path fill-rule="evenodd" clip-rule="evenodd" d="M11.2644 37.7257L11.2672 41.3015L26.2804 41.3007L26.2843 37.546L11.2649 37.5459L11.2644 37.7257Z" fill="#1253A2"/>
<path fill-rule="evenodd" clip-rule="evenodd" d="M11.2643 22.7059L11.265 26.2807L26.2811 26.2809L26.2849 22.5262L11.2642 22.526L11.2643 22.7059Z" fill="#1253A2"/>
<path fill-rule="evenodd" clip-rule="evenodd" d="M11.2647 30.6851L11.268 33.7906L26.2804 33.7908L26.2844 30.0356L11.2649 30.0359L11.2647 30.6851Z" fill="#1253A2"/>
<path fill-rule="evenodd" clip-rule="evenodd" d="M33.7944 30.4505L33.797 33.7913L41.3003 33.7908L41.3045 30.0354L33.7947 30.036L33.7944 30.4505Z" fill="black"/>
<path fill-rule="evenodd" clip-rule="evenodd" d="M33.7941 37.7257L33.7948 41.3005L41.3003 41.3007L41.3044 37.5463L33.7941 37.5459L33.7941 37.7257Z" fill="black"/>
<path fill-rule="evenodd" clip-rule="evenodd" d="M33.7946 23.4099L33.7975 26.2807L41.3003 26.2808L41.3043 22.5262L33.7948 22.526L33.7946 23.4099Z" fill="black"/>
</g>
<defs>
<clipPath id="clip0_1_188">
<rect width="53" height="61" fill="white"/>
</clipPath>
</defs>
</svg>
