<svg width="60" height="28" viewBox="0 0 60 28" fill="none" xmlns="http://www.w3.org/2000/svg">
<g clip-path="url(#clip0_1_116)">
<path fill-rule="evenodd" clip-rule="evenodd" d="M44.2651 0.00799973C48.2471 -0.11 51.1652 1.094 53.5242 2.85C55.6489 4.432 57.5987 6.903 58.4213 9.943C59.5344 14.063 58.9612 16.535 57.5313 19.913C57.0336 21.09 55.7314 22.648 54.9652 23.417C50.3386 28.057 42.9106 28.923 37.2563 25.269C36.4187 24.728 34.4478 23.109 34.0436 22.463C34.2517 22.041 38.1342 18.284 38.3524 18.203C38.7828 18.463 39.3217 19.122 39.7762 19.509C40.3112 19.964 40.7476 20.266 41.4203 20.597C45.6557 22.675 50.7981 20.535 52.2311 16.714C55.3362 8.437 45.2706 2.552 39.1568 8.601L25.6422 22.04C23.8955 23.771 22.4073 25.47 19.46 26.674C10.4834 30.34 1.00002 24.136 0.181498 15.505C-0.394685 9.448 2.62198 4.19 7.7835 1.654C13.1753 -0.997 19.6571 0.00999928 23.9569 4.2L24.7352 4.977L25.067 5.309C26.5934 6.829 29.1686 9.361 29.5256 9.464C29.8373 9.279 35.0109 4.061 35.6474 3.487C37.558 1.763 40.8431 0.109 44.2651 0.00799973ZM8.94994 8.155C5.36313 11.091 5.29173 16.738 8.98514 19.813C10.4663 21.046 12.9571 22.003 15.6007 21.471C18.2654 20.936 19.3665 19.626 20.7924 18.211C21.3726 17.638 24.897 14.259 25.0358 13.866C24.7774 13.386 21.2308 10.112 20.7572 9.644C19.2559 8.165 18.2051 6.975 15.4991 6.439C12.8626 5.916 10.4804 6.902 8.94994 8.155Z" fill="#1253A2"/>
</g>
<defs>
<clipPath id="clip0_1_116">
<rect x="0.111111" width="59.3278" height="28" rx="10" fill="white"/>
</clipPath>
</defs>
</svg>
