<svg width="59" height="59" viewBox="0 0 59 59" fill="none" xmlns="http://www.w3.org/2000/svg">
<g clip-path="url(#clip0_1_178)">
<path fill-rule="evenodd" clip-rule="evenodd" d="M8.81947 8.18431C12.3404 6.87009 15.5974 9.41993 15.6971 12.7027C17.5453 12.5614 18.7277 12.3819 20.5928 12.721C22.7517 13.1134 25.1622 14.2357 26.7587 15.6366C26.9215 15.7794 26.9669 15.8074 27.1101 15.9261C29.972 18.3005 32.0456 22.1245 33.8733 25.2802C35.4818 28.0572 37.5556 32.6959 40.1598 34.4754C41.8882 35.6563 42.6055 35.4907 43.7459 36.0695C48.0249 38.241 47.9478 43.5595 43.7142 45.1253C42.4587 45.5897 41.2125 46.0414 39.9628 46.492C37.7183 47.3014 34.5614 48.5399 32.4237 49.226C32.7041 51.7391 32.5114 53.1044 31.357 54.9642C28.9065 58.9124 23.2817 59.867 19.4728 56.44C19.204 56.1983 18.9015 55.845 18.6614 55.5243L17.965 54.5111C17.4304 54.6465 16.7354 54.9474 16.188 55.1477L7.32212 58.3714C5.96197 58.8777 4.92057 59.2189 3.37577 58.7212C0.621468 57.8338 -0.238831 55.0365 0.493482 52.4406C0.669261 51.8174 0.955572 51.297 1.2662 50.773L1.45481 50.4574C2.18371 49.2391 2.95006 47.8894 2.70495 45.1138C2.47194 42.4751 1.74454 39.5461 1.1027 36.5371L0.956361 35.8414C-0.342232 29.569 -1.07934 23.0212 3.94081 18.0816C5.25208 16.7913 5.9294 16.587 6.63965 15.9861C6.51824 15.7048 6.25337 15.3711 6.07679 15.0151C5.90584 14.6703 5.78894 14.3191 5.70675 13.9177C5.20637 11.4743 6.58866 9.01694 8.81947 8.18431ZM10.3036 10.5946C8.45273 10.9056 7.92237 12.937 8.61721 14.0132C9.01702 14.6325 9.6173 14.7907 9.82596 15.6841C10.0463 16.6278 9.54166 17.3618 9.02649 17.7295C7.84206 18.5746 6.96159 18.8517 5.74899 20.1465C4.74295 21.2208 4.05627 22.0889 3.48108 23.635C1.29744 29.5043 4.38543 37.2645 5.21545 43.1953C5.78375 47.2563 5.37924 49.4623 3.48395 52.3588C2.81593 53.3796 2.48101 55.7462 4.38506 56.1758C5.20682 56.3613 6.00798 55.958 6.69692 55.6993C12.9348 53.3574 19.313 51.1618 25.5993 48.823C31.1912 46.7426 36.7853 44.757 42.3869 42.711C43.2207 42.4066 43.6529 42.2013 44.0116 41.5189C44.4848 40.6189 44.0916 39.9543 43.6277 39.3868C42.6594 38.2024 41.3205 38.2564 39.8115 37.4439C37.0329 35.9477 35.9245 34.2193 34.2667 31.5399C32.001 27.878 29.1564 21.4872 25.865 18.5119C25.7149 18.3762 25.6818 18.3262 25.5144 18.1612C25.3744 18.0231 25.2387 17.9396 25.0926 17.8135C20.1622 13.5567 15.5778 16.1522 13.9439 15.3387C12.0475 14.3945 13.6655 12.7051 12.3768 11.2752C11.9905 10.8465 11.1588 10.4509 10.3036 10.5946ZM29.8214 50.2028L20.6029 53.5385C21.5468 55.3097 24.3203 56.3894 26.5872 55.507C28.5359 54.7485 30.0145 52.967 29.8214 50.2028Z" fill="black"/>
<path fill-rule="evenodd" clip-rule="evenodd" d="M34.9807 0.029123C34.3665 0.0611597 33.8408 0.102125 33.4859 0.418521C33.1888 0.683476 32.9272 1.28194 33.1197 1.85348C33.5268 3.06205 34.7727 2.72095 36.0676 2.73425C42.4792 2.7999 47.8492 5.74815 51.4859 10.2268C56.0143 15.8036 57.2342 23.9574 54.1134 30.8351C53.9027 31.2992 53.5861 31.7156 53.7343 32.3479C53.8436 32.8145 54.1993 33.2046 54.665 33.3352C55.9366 33.6917 56.3386 32.5578 56.7038 31.6962C59.6971 24.6346 59.0661 16.7257 54.9803 10.444C54.4397 9.61281 53.9549 8.95907 53.3969 8.25069L51.5549 6.2569C47.273 2.28827 41.4067 -0.306463 34.9807 0.029123Z" fill="#1253A2"/>
<path fill-rule="evenodd" clip-rule="evenodd" d="M35.1801 7.13293C34.7477 7.15681 34.4347 7.15809 34.1242 7.39184C33.1119 8.154 33.5557 9.62084 34.6085 9.83502C35.5941 10.0356 36.7555 9.57444 39.4199 10.3329C44.8018 11.8649 48.569 16.7077 48.7371 22.2538C48.7861 23.8678 48.5298 25.4801 48.0451 26.8761C47.8827 27.3437 47.358 28.4022 47.3237 28.7814C47.2528 29.5658 47.8273 30.21 48.5387 30.2682C49.446 30.3424 49.7724 29.7642 50.064 29.1509C52.3031 24.4432 51.7378 18.5775 49.067 14.3728C46.147 9.77572 40.9152 6.81638 35.1801 7.13293Z" fill="#1253A2"/>
<path fill-rule="evenodd" clip-rule="evenodd" d="M34.9995 14.3117C34.3121 14.5289 33.7657 15.2858 34.1585 16.1682C34.5593 17.0686 35.3253 16.8765 36.3729 16.9644C40.3603 17.2989 42.6219 21.4246 41.2323 24.7968C41.0561 25.2242 40.8539 25.4783 40.9349 26.0202C41.0438 26.7493 41.8216 27.3549 42.6926 27.0902C44.2638 26.6129 45.2786 21.6514 43.0449 18.1574C42.3298 17.0389 41.2336 15.907 39.942 15.2475C38.8871 14.7089 36.435 13.858 34.9995 14.3117Z" fill="#1253A2"/>
</g>
<defs>
<clipPath id="clip0_1_178">
<rect width="59" height="59" fill="white"/>
</clipPath>
</defs>
</svg>
