<svg width="59" height="53" viewBox="0 0 59 53" fill="none" xmlns="http://www.w3.org/2000/svg">
<g clip-path="url(#clip0_1_202)">
<path fill-rule="evenodd" clip-rule="evenodd" d="M15.7492 5.60156C15.6992 5.7536 15.3851 5.92839 15.2308 6.0609C14.1033 7.03007 13.0313 8.02199 12.0892 9.16655C11.9657 9.31653 11.6954 9.67185 11.5723 9.7196L9.69073 12.4223C9.38272 13.1125 8.69396 13.9815 8.45238 14.7766C8.19457 14.9963 7.26105 17.5726 7.07875 18.1514C6.67107 19.4454 6.42909 20.6166 6.16631 22.0493L0.92988 21.285L0 21.1886V21.1923L1.07454 22.6855C1.41381 23.2019 2.67001 24.83 2.87777 25.2602C3.37862 25.8911 3.80027 26.585 4.30866 27.2572C4.57215 27.6057 4.76746 27.915 5.00836 28.251C5.22271 28.5499 5.56805 28.9743 5.7205 29.3013C5.88222 29.4135 6.11004 29.7763 6.23423 29.9533C6.40197 30.1923 6.55908 30.4115 6.71649 30.6428C6.97959 31.0295 7.55754 31.7291 7.67967 32.0873C7.79697 32.1354 8.33801 32.948 8.43685 33.0856L9.24107 34.1922C9.59618 33.8408 10.7104 32.0865 10.868 32.0222C10.9919 31.7249 12.6955 29.2904 12.9206 29.1834C12.9776 28.8957 13.3726 28.4553 13.5572 28.2044L15.6708 25.2592C15.8223 24.9409 16.9239 23.4931 17.2104 23.0733C17.339 22.8849 17.5855 22.4474 17.8017 22.3504C17.8395 22.1592 17.8164 22.2392 17.9422 22.0474L18.5303 21.2196L18.3632 21.19L17.5737 21.3168C17.3267 21.3799 16.9892 21.4282 16.7275 21.3946L14.4171 21.7887C13.6174 21.9029 12.8063 22.0567 12.005 22.1507C12.1131 21.4686 12.3065 20.7842 12.4919 20.178L13.1503 18.2915C13.2613 18.1895 13.7427 17.0818 13.8529 16.8506C14.3145 15.8823 15.8044 13.6418 16.5634 12.8585C16.9713 12.4374 17.2266 12.1079 17.6268 11.7088C18.2414 11.0961 20.8628 8.92799 21.487 8.82229C21.6287 8.57448 22.0721 8.41067 22.3312 8.27387C22.6378 8.11191 23.0006 7.89094 23.303 7.79932C24.3798 7.34904 25.2544 6.95336 26.5099 6.59969C27.2492 6.39147 29.5675 5.84522 30.3505 5.95252C30.4872 5.85482 30.566 5.8808 30.7818 5.8612C31.2393 5.85973 34.6149 5.7658 35.0734 6.07696C35.6298 5.9788 38.6028 6.73354 38.9819 6.98257C39.557 7.11793 39.9992 7.34782 40.5266 7.56672C40.7147 7.64473 40.8626 7.69132 41.0018 7.83975C41.2808 7.85903 42.9087 8.75995 43.0167 8.92606C43.4203 9.07316 43.7329 9.34042 44.0544 9.57255C44.82 10.1254 45.3053 10.584 45.8745 11.0077C46.0912 11.1689 46.0802 11.208 46.2653 11.3959C46.4184 11.5514 46.5426 11.6546 46.6986 11.8107L48.2495 13.5133C48.5609 13.8958 49.4108 14.9971 49.596 15.4925C49.8721 15.6772 50.4857 17.0275 50.7248 17.4729C51.0564 18.2636 51.3829 18.9062 51.6533 19.7473C51.9319 20.6138 52.1678 21.4485 52.3424 22.3646C52.7651 24.5829 52.7347 26.1888 52.6338 28.4639C52.511 29.0448 52.4596 29.7066 52.3526 30.3056C52.2476 30.8935 52.0965 31.4759 51.9384 32.0285C51.7911 32.5431 51.0024 34.9117 50.7674 35.0815C50.6597 35.4561 49.9577 36.8296 49.7322 37.0364C48.8023 38.8163 46.6777 41.0973 45.0155 42.4163C44.6957 42.6702 43.3832 43.7067 43.0198 43.7756C42.9054 43.946 42.7994 43.9809 42.5934 44.097C42.4482 44.1787 42.289 44.2812 42.1012 44.3828C41.7577 44.5688 41.3689 44.7919 40.9993 44.9088C40.8329 45.082 39.4788 45.5712 39.1373 45.7188C38.8085 45.7738 38.3021 45.9797 37.9461 46.0851C37.5191 46.2116 37.1221 46.3142 36.6567 46.4215C35.8028 46.6185 34.7286 46.7702 33.79 46.8324L33.5855 46.8607C32.982 46.8617 32.4127 46.9105 31.8223 46.8956C31.2562 46.8813 30.6869 46.815 30.131 46.7952C29.8774 46.7703 29.4703 46.7659 29.3095 46.6386C28.5892 46.7356 25.991 45.9718 25.3191 45.7029C25.1208 45.649 25.0171 45.6053 24.8219 45.5339C24.6104 45.4565 24.5035 45.4351 24.3368 45.2725C23.9248 45.2748 21.8033 44.1483 21.491 43.867C21.088 43.7412 19.8582 42.796 19.4595 42.4983C19.0588 42.1989 17.7256 41.0018 17.5063 40.9384C17.4841 41.1262 17.2408 41.2867 17.0916 41.4349C16.9122 41.6132 16.7821 41.7441 16.6032 41.9227L14.1306 44.3959C13.9758 44.5509 13.7969 44.8198 13.6015 44.8431C13.6583 45.1015 13.5853 44.9643 13.7906 45.1783L15.6142 46.8669L17.8878 48.4972C18.1702 48.6845 18.4277 48.8075 18.6635 49.0081C18.8928 49.08 19.3591 49.3835 19.6026 49.5132C19.936 49.6909 20.3356 49.8473 20.5547 50.0753L23.3701 51.2152C29.8009 53.5836 37.0824 53.1492 43.2682 50.3033C43.7406 50.0859 44.1277 49.8727 44.5743 49.6565C44.8728 49.5119 45.6549 48.9905 45.8635 48.9626L46.0152 48.8194C46.2496 48.6284 47.7497 47.6777 48.4262 47.1287C48.5595 47.0206 48.6568 46.9074 48.805 46.8461C50.4219 45.4355 51.2467 44.6694 52.55 43.1155L52.7774 42.8902L54.8016 39.9753C54.9987 39.3947 56.4982 37.2114 57.3604 34.2629C57.9062 32.3963 58.2186 31.0741 58.4179 29.1446C58.4568 28.7688 58.5031 27.4422 58.57 27.2348V25.1861C58.496 24.9951 58.3173 22.6583 58.2353 22.1522C58.0699 21.1328 57.8816 20.2841 57.6276 19.3647C56.6903 15.9725 54.6519 11.8158 52.3567 9.34058L51.5677 8.43844C51.2056 7.99493 49.9212 6.82999 49.8415 6.73405L49.7434 6.66211L48.9074 5.95781C47.2319 4.56281 44.6492 2.91464 42.6489 2.13216C39.7229 0.987602 36.8255 0.0860577 33.2552 0.00913032C29.5267 -0.0712136 26.4707 0.374379 23.2452 1.51709C20.5887 2.45831 18.8319 3.46959 16.637 4.99119C16.3606 5.18281 16.0651 5.44014 15.7492 5.60156Z" fill="#1253A2"/>
<path fill-rule="evenodd" clip-rule="evenodd" d="M40.9606 18.1082L40.0256 18.5137C39.4381 18.772 38.7178 19.0125 38.1438 19.3118L33.2544 21.3589C32.7681 21.4913 31.5513 22.1034 31.2531 22.1108C31.2053 22.1537 31.2064 22.1579 31.1248 22.2069C30.6447 22.4948 29.6077 22.6921 29.139 23.2871C28.6514 23.9061 28.4091 24.7036 28.0997 25.5625C27.8058 26.3782 27.5045 27.1784 27.2321 27.9524C26.9599 28.7262 26.5427 29.6787 26.3541 30.4604C26.1966 30.6262 25.9404 31.5761 25.8931 31.892C25.7925 32.7294 26.1249 33.5547 26.553 33.975C27.1545 34.5659 27.3308 34.7237 28.3117 35.0544L28.6994 35.1215C29.5233 35.1888 30.1088 34.9808 30.6124 34.587C30.8313 34.4158 31.0056 34.1857 31.1729 33.909C31.3183 33.6683 31.4684 33.2101 31.575 33.0634C31.6472 32.7319 31.8053 32.3982 31.9039 32.1016C31.955 31.948 32.0181 31.7769 32.0742 31.6273C32.0976 31.565 32.1442 31.4269 32.1614 31.3894L32.3005 31.1737C32.2988 30.8291 33.2878 28.3914 33.4786 27.8243C33.6964 27.1769 33.6284 27.3523 34.8088 26.8698L39.6907 24.9202C40.7536 24.4901 41.9042 23.9843 42.9513 23.621C43.3015 23.5066 43.6382 23.3471 44.0134 23.1957C44.221 23.1119 44.3675 23.05 44.5443 22.9425C44.7397 22.8237 44.7997 22.7352 44.9675 22.6455C45.0947 22.4595 44.9878 22.5585 45.1928 22.4536C45.2235 22.323 45.1698 22.4626 45.2444 22.3343C45.2608 22.3061 45.3016 22.2543 45.3221 22.2267C46.1644 21.0924 45.9173 19.4594 45.0084 18.4481C44.866 18.2898 44.7326 18.1852 44.6181 18.0469C44.3414 17.9139 44.2377 17.7904 43.9048 17.6674C43.5677 17.5429 43.3889 17.5252 43.0165 17.5102C42.1146 17.5139 41.7032 17.898 40.9606 18.1082Z" fill="black"/>
</g>
<defs>
<clipPath id="clip0_1_202">
<rect width="59" height="53" fill="white"/>
</clipPath>
</defs>
</svg>
