<svg width="59" height="55" viewBox="0 0 59 55" fill="none" xmlns="http://www.w3.org/2000/svg">
<g clip-path="url(#clip0_1_162)">
<path d="M33.19 44.904H25.38C25.1211 44.904 24.8729 45.0068 24.6899 45.1899C24.5068 45.3729 24.404 45.6211 24.404 45.88V49.785C24.404 50.0438 24.5068 50.2921 24.6899 50.4751C24.8729 50.6582 25.1211 50.761 25.38 50.761H33.19C33.4486 50.7605 33.6964 50.6574 33.8792 50.4745C34.062 50.2915 34.1647 50.0436 34.165 49.785V45.88C34.165 45.6211 34.0622 45.3729 33.8791 45.1899C33.6961 45.0068 33.4488 44.904 33.19 44.904ZM32.213 48.809H26.356V46.856H32.213V48.809ZM40.999 44.904H37.094C36.8351 44.904 36.5869 45.0068 36.4039 45.1899C36.2208 45.3729 36.118 45.6211 36.118 45.88V49.785C36.118 50.0438 36.2208 50.2921 36.4039 50.4751C36.5869 50.6582 36.8351 50.761 37.094 50.761H41C41.2588 50.7607 41.5069 50.6578 41.6898 50.4748C41.8728 50.2919 41.9757 50.0438 41.976 49.785V45.88C41.976 45.6211 41.8732 45.3729 41.6901 45.1899C41.5071 45.0068 41.2578 44.904 40.999 44.904ZM40.023 48.809H38.07V46.856H40.023V48.809ZM48.808 44.904H44.903C44.6441 44.904 44.3959 45.0068 44.2129 45.1899C44.0298 45.3729 43.927 45.6211 43.927 45.88V49.785C43.927 50.0438 44.0298 50.2921 44.2129 50.4751C44.3959 50.6582 44.6441 50.761 44.903 50.761H48.808C49.0668 50.7607 49.3149 50.6578 49.4978 50.4748C49.6808 50.2919 49.7837 50.0438 49.784 49.785V45.88C49.7837 45.6212 49.6808 45.3731 49.4978 45.1901C49.3149 45.0072 49.0668 44.9043 48.808 44.904ZM47.832 48.809H45.879V46.856H47.832V48.809ZM21.475 44.904H17.57C17.3111 44.904 17.0629 45.0068 16.8799 45.1899C16.6968 45.3729 16.594 45.6211 16.594 45.88V49.785C16.594 50.0438 16.6968 50.2921 16.8799 50.4751C17.0629 50.6582 17.3111 50.761 17.57 50.761H21.475C21.7338 50.7607 21.9819 50.6578 22.1648 50.4748C22.3478 50.2919 22.4507 50.0438 22.451 49.785V45.88C22.4507 45.6212 22.3478 45.3731 22.1648 45.1901C21.9819 45.0072 21.7338 44.9043 21.475 44.904ZM20.5 48.81H18.548V46.857H20.5V48.81ZM13.666 44.904H9.76C9.50115 44.904 9.25289 45.0068 9.06986 45.1899C8.88682 45.3729 8.784 45.6211 8.784 45.88V49.785C8.784 50.0438 8.88682 50.2921 9.06986 50.4751C9.25289 50.6582 9.50115 50.761 9.76 50.761H13.665C13.9238 50.7607 14.1719 50.6578 14.3548 50.4748C14.5378 50.2919 14.6407 50.0438 14.641 49.785V45.88C14.641 45.6211 14.5382 45.3729 14.3551 45.1899C14.1721 45.0068 13.9238 44.904 13.665 44.904H13.666ZM12.689 48.809H10.737V46.856H12.689V48.809Z" fill="#1253A2"/>
<path d="M55.641 1.952H42.843C41.5696 0.700675 39.8558 -0.000488281 38.0705 -0.000488281C36.2852 -0.000488281 34.5714 0.700675 33.298 1.952H2.928C2.15135 1.95226 1.40661 2.26097 0.857531 2.81024C0.308453 3.3595 -4.52641e-08 4.10435 0 4.881L0 51.737C-4.52641e-08 52.5136 0.308453 53.2585 0.857531 53.8078C1.40661 54.357 2.15135 54.6657 2.928 54.666H55.642C56.4186 54.6657 57.1634 54.357 57.7125 53.8078C58.2615 53.2585 58.57 52.5136 58.57 51.737V4.881C58.57 4.10435 58.2615 3.3595 57.7125 2.81024C57.1634 2.26097 56.4176 1.95226 55.641 1.952ZM52.713 7.81V17.572H25.38V7.81H31.375C32.203 11.203 36.888 14.96 37.47 15.413C37.6415 15.5466 37.8526 15.6192 38.07 15.6192C38.2874 15.6192 38.4985 15.5466 38.67 15.413C39.256 14.959 43.942 11.203 44.766 7.81H52.713ZM52.713 25.382H41.975C41.7161 25.382 41.4679 25.4848 41.2849 25.6679C41.1018 25.8509 40.999 26.0991 40.999 26.358V41H35.142V26.357C35.142 26.2287 35.1167 26.1017 35.0676 25.9833C35.0185 25.8648 34.9465 25.7572 34.8558 25.6665C34.765 25.5759 34.6573 25.504 34.5388 25.455C34.4203 25.406 34.2933 25.3809 34.165 25.381H24.404C24.1451 25.381 23.8969 25.4838 23.7139 25.6669C23.5308 25.8499 23.428 26.0981 23.428 26.357V40.999H17.57V26.357C17.57 26.0981 17.4672 25.8499 17.2841 25.6669C17.1011 25.4838 16.8529 25.381 16.594 25.381H5.856V19.523H16.594C16.8528 19.5227 17.1009 19.4198 17.2838 19.2368C17.4668 19.0539 17.5697 18.8058 17.57 18.547V7.81H23.428V18.548C23.4283 18.8068 23.5312 19.0549 23.7142 19.2378C23.8971 19.4208 24.1452 19.5237 24.404 19.524H52.713V25.382ZM52.713 27.334V41H42.95V27.333H52.712L52.713 27.334ZM33.189 40.999H25.379V27.333H33.189V40.999ZM5.856 27.333H15.618V40.999H5.856V27.333ZM5.856 17.571V7.81H15.618V17.572H5.856V17.571ZM38.07 1.952C39.3638 1.95438 40.6039 2.46939 41.5188 3.38424C42.4336 4.29909 42.9486 5.53921 42.951 6.833C42.951 8.658 40.168 11.616 38.071 13.385C35.972 11.616 33.189 8.658 33.189 6.833C33.1916 5.53938 33.7068 4.29952 34.6216 3.38488C35.5364 2.47025 36.7764 1.95438 38.07 1.952ZM56.617 51.737C56.617 51.9958 56.5142 52.2441 56.3311 52.4271C56.1481 52.6102 55.8998 52.713 55.641 52.713H2.928C2.66915 52.713 2.4209 52.6102 2.23786 52.4271C2.05483 52.2441 1.952 51.9958 1.952 51.737V4.881C1.952 4.341 2.389 3.905 2.928 3.905H31.905C31.611 4.52218 31.4121 5.1803 31.315 5.857H5.856C5.33838 5.85726 4.84203 6.063 4.47602 6.42902C4.11001 6.79503 3.90426 7.29138 3.904 7.809V41C3.904 41.5178 4.10962 42.0144 4.47567 42.3806C4.84171 42.7469 5.33821 42.9527 5.856 42.953H52.712C53.23 42.953 53.7267 42.7472 54.093 42.381C54.4592 42.0147 54.665 41.518 54.665 41V7.81C54.6647 7.2922 54.4589 6.79571 54.0926 6.42967C53.7264 6.06362 53.2298 5.858 52.712 5.858H44.825C44.7279 5.18129 44.529 4.52318 44.235 3.906H55.64C55.8988 3.906 56.1471 4.00883 56.3301 4.19186C56.5132 4.3749 56.616 4.62315 56.616 4.882V51.738L56.617 51.737Z" fill="black"/>
<path d="M12.69 21.476H16.594V23.428H12.69V21.476ZM8.785 21.476H10.737V23.428H8.785V21.476ZM19.523 14.643H21.475V18.547H19.523V14.643ZM19.523 10.738H21.475V12.69H19.523V10.738ZM19.523 26.357H21.475V30.262H19.523V26.357ZM19.523 32.214H21.475V36.119H19.523V32.214ZM24.404 21.476H28.308V23.428H24.404V21.476ZM30.26 21.476H34.165V23.428H30.261L30.26 21.476ZM36.118 21.476H40.023V23.428H36.118V21.476ZM41.975 21.476H45.879V23.428H41.975V21.476ZM37.094 26.357H39.046V30.262H37.094V26.357ZM37.094 32.214H39.046V36.119H37.094V32.214Z" fill="black"/>
<path d="M38.07 9.76199C38.8468 9.76199 39.5918 9.4534 40.1411 8.90411C40.6904 8.35481 40.999 7.60981 40.999 6.83299C40.999 6.05617 40.6904 5.31117 40.1411 4.76188C39.5918 4.21258 38.8468 3.90399 38.07 3.90399C37.2932 3.90399 36.5482 4.21258 35.9989 4.76188C35.4496 5.31117 35.141 6.05617 35.141 6.83299C35.141 7.60981 35.4496 8.35481 35.9989 8.90411C36.5482 9.4534 37.2932 9.76199 38.07 9.76199ZM38.07 5.85699C38.2007 5.85281 38.331 5.87494 38.453 5.92208C38.575 5.96922 38.6863 6.0404 38.7802 6.1314C38.8742 6.2224 38.9489 6.33135 38.9999 6.45179C39.0509 6.57223 39.0772 6.70169 39.0772 6.83249C39.0772 6.96329 39.0509 7.09276 38.9999 7.21319C38.9489 7.33363 38.8742 7.44259 38.7802 7.53358C38.6863 7.62458 38.575 7.69577 38.453 7.7429C38.331 7.79004 38.2007 7.81218 38.07 7.80799C37.8167 7.79988 37.5765 7.69355 37.4001 7.51149C37.2238 7.32944 37.1252 7.08593 37.1252 6.83249C37.1252 6.57905 37.2238 6.33555 37.4001 6.15349C37.5765 5.97143 37.8167 5.8651 38.07 5.85699Z" fill="#1253A2"/>
</g>
<defs>
<clipPath id="clip0_1_162">
<rect width="59" height="55" fill="white"/>
</clipPath>
</defs>
</svg>
