<svg width="40" height="80" viewBox="0 0 40 80" fill="none" xmlns="http://www.w3.org/2000/svg">
<g clip-path="url(#clip0_1_255)">
<path fill-rule="evenodd" clip-rule="evenodd" d="M40 80C17.9086 80 0 62.0914 0 40C0 17.9086 20.4343 0 40 0V80Z" fill="#A6B7D4" fill-opacity="0.471045"/>
<path fill-rule="evenodd" clip-rule="evenodd" d="M28.4127 38.9505C28.9247 39.3751 29.1807 39.7928 29.1807 40.2037C29.1807 40.6146 28.9141 41.0802 28.3808 41.6007L18.4424 51.6012C17.9285 52.1184 17.9202 52.9508 18.4237 53.478C18.9123 53.9897 19.7231 54.0084 20.2347 53.5198C20.2417 53.5132 20.2486 53.5064 20.2554 53.4996L32.1442 41.6238C32.9256 40.8431 32.9263 39.5768 32.1457 38.7953C32.1435 38.7931 32.1413 38.7909 32.1391 38.7887L20.0628 26.8117C19.5471 26.3003 18.7146 26.3037 18.2032 26.8193C18.1961 26.8265 18.1891 26.8336 18.1822 26.8409C17.6674 27.3843 17.6794 28.2391 18.2092 28.7679L28.4127 38.9505Z" fill="white"/>
</g>
<defs>
<clipPath id="clip0_1_255">
<rect width="40" height="80" fill="white"/>
</clipPath>
</defs>
</svg>
