<svg width="40" height="80" viewBox="0 0 40 80" fill="none" xmlns="http://www.w3.org/2000/svg">
<g clip-path="url(#clip0_1_249)">
<path fill-rule="evenodd" clip-rule="evenodd" d="M0 80C22.0914 80 40 62.0914 40 40C40 17.9086 19.5657 0 0 0V80Z" fill="#A6B7D4" fill-opacity="0.471045"/>
<path fill-rule="evenodd" clip-rule="evenodd" d="M11.5872 38.9505C11.0752 39.3751 10.8193 39.7928 10.8193 40.2037C10.8193 40.6146 11.0859 41.0802 11.6191 41.6007L21.5576 51.6012C22.0715 52.1184 22.0798 52.9508 21.5763 53.478C21.0877 53.9897 20.2768 54.0084 19.7652 53.5198C19.7583 53.5132 19.7514 53.5064 19.7446 53.4996L7.85579 41.6238C7.07432 40.8431 7.07363 39.5768 7.85425 38.7953C7.85645 38.7931 7.85866 38.7909 7.86087 38.7887L19.9372 26.8117C20.4528 26.3003 21.2854 26.3037 21.7968 26.8193C21.8038 26.8265 21.8108 26.8336 21.8177 26.8409C22.3326 27.3843 22.3206 28.2391 21.7907 28.7679L11.5872 38.9505Z" fill="white"/>
</g>
<defs>
<clipPath id="clip0_1_249">
<rect width="40" height="80" fill="white"/>
</clipPath>
</defs>
</svg>
