<svg width="33" height="23" viewBox="0 0 33 23" fill="none" xmlns="http://www.w3.org/2000/svg">
<g clip-path="url(#clip0_1_89)">
<path fill-rule="evenodd" clip-rule="evenodd" d="M2.5258 20.2492C1.61798 19.0743 1.16406 16.1905 1.16406 11.5976C1.16406 7.00468 1.52855 4.25596 2.25754 3.35141C2.75216 2.6247 3.22423 2.1221 3.67376 1.8436C4.12329 1.5651 4.71528 1.40847 5.44973 1.37371C10.5243 1.12406 14.3824 0.999492 17.0239 1C19.6655 1.00051 23.1675 1.12651 27.5299 1.37798C28.2271 1.51283 28.8478 1.77363 29.392 2.16038C29.9363 2.54714 30.3022 3.04098 30.4897 3.64191C31.0955 5.04118 31.3984 7.52884 31.3984 11.1049C31.3984 14.6809 31.1736 17.2829 30.7239 18.9108C30.4927 19.803 30.0488 20.5145 29.392 21.045C28.7353 21.5756 27.852 21.8344 26.7423 21.8215C21.892 22.0624 18.2543 22.1787 15.8292 22.1702C13.4042 22.1618 9.93055 22.0209 5.40843 21.7474C4.7907 21.7474 4.26489 21.6434 3.83098 21.4353C3.39708 21.2272 2.96202 20.8318 2.5258 20.2492Z" stroke="#1253A2"/>
<path fill-rule="evenodd" clip-rule="evenodd" d="M13.2152 7.03704L13.219 7.04004L21.3701 11.3065L20.3739 11.7778L13.2089 15.4787L13.2149 7.03804L13.2152 7.03704Z" fill="#1253A2"/>
</g>
<defs>
<clipPath id="clip0_1_89">
<rect width="32.25" height="23" fill="white" transform="translate(0.15625)"/>
</clipPath>
</defs>
</svg>
